<svg width="209.2mm" height="78.644mm" version="1.1" viewBox="0 0 209.2 78.644" xmlns="http://www.w3.org/2000/svg">
<defs>
<clipPath id="clipPath385">
<path transform="translate(-411.26 -380.56)" d="m0 5221h2305v-5221h-2305z"/>
</clipPath>
<clipPath id="clipPath387">
<path transform="translate(-503.46 -453.03)" d="m0 5221h2305v-5221h-2305z"/>
</clipPath>
<clipPath id="clipPath389">
<path transform="translate(-555.24 -413.24)" d="m0 5221h2305v-5221h-2305z"/>
</clipPath>
<clipPath id="clipPath391">
<path transform="translate(-608.02 -413.19)" d="m0 5221h2305v-5221h-2305z"/>
</clipPath>
<clipPath id="clipPath393">
<path transform="translate(-640.82 -413.15)" d="m0 5221h2305v-5221h-2305z"/>
</clipPath>
<clipPath id="clipPath395">
<path transform="translate(-673.7 -437.42)" d="m0 5221h2305v-5221h-2305z"/>
</clipPath>
<clipPath id="clipPath397">
<path transform="translate(-717.71 -435.85)" d="m0 5221h2305v-5221h-2305z"/>
</clipPath>
<clipPath id="clipPath399">
<path transform="translate(-518.28 -334.68)" d="m0 5221h2305v-5221h-2305z"/>
</clipPath>
<clipPath id="clipPath401">
<path transform="translate(-566.56 -352.14)" d="m0 5221h2305v-5221h-2305z"/>
</clipPath>
<clipPath id="clipPath403">
<path transform="translate(-601.44 -334.68)" d="m0 5221h2305v-5221h-2305z"/>
</clipPath>
<clipPath id="clipPath405">
<path transform="translate(-673.14 -392.15)" d="m0 5221h2305v-5221h-2305z"/>
</clipPath>
<clipPath id="clipPath407">
<path transform="translate(-718.52 -364.08)" d="m0 5221h2305v-5221h-2305z"/>
</clipPath>
<clipPath id="clipPath409">
<path transform="translate(-759.8 -363.5)" d="m0 5221h2305v-5221h-2305z"/>
</clipPath>
<clipPath id="clipPath411">
<path transform="translate(-847.94 -352.14)" d="m0 5221h2305v-5221h-2305z"/>
</clipPath>
<clipPath id="clipPath413">
<path transform="translate(-507.23 -293.54)" d="m0 5221h2305v-5221h-2305z"/>
</clipPath>
<clipPath id="clipPath415">
<path transform="translate(-546.24 -259.89)" d="m0 5221h2305v-5221h-2305z"/>
</clipPath>
<clipPath id="clipPath417">
<path transform="translate(-609.82 -288.7)" d="m0 5221h2305v-5221h-2305z"/>
</clipPath>
<clipPath id="clipPath419">
<path transform="translate(-677.76 -283.95)" d="m0 5221h2305v-5221h-2305z"/>
</clipPath>
<clipPath id="clipPath421">
<path transform="translate(-748.17 -283.4)" d="m0 5221h2305v-5221h-2305z"/>
</clipPath>
<clipPath id="clipPath423">
<path transform="translate(0,-2.5e-5)" d="m0 5221h2305v-5221h-2305z"/>
</clipPath>
<clipPath id="clipPath425">
<path transform="translate(-848 -277.34)" d="m0 5221h2305v-5221h-2305z"/>
</clipPath>
<clipPath id="clipPath427">
<path transform="translate(-801.38 -435.82)" d="m0 5221h2305v-5221h-2305z"/>
</clipPath>
<clipPath id="clipPath429">
<path transform="translate(-847.54 -412.84)" d="m0 5221h2305v-5221h-2305z"/>
</clipPath>
<clipPath id="clipPath431">
<path transform="translate(-354.98 -374.86)" d="m0 5221h2305v-5221h-2305z"/>
</clipPath>
</defs>
<g transform="translate(-35.983 -57.415)">
<path transform="matrix(.35278 0 0 -.35278 91.108 90.221)" d="m0 0c6.943-8.914 11.081-20.113 11.081-32.251 0-28.988-23.585-52.573-52.56-52.573-9.841 0-19.082 2.728-26.965 7.465-5.717 2.65-10.585 6.5-14.618 11.578-8.458 10.624-12.687 26.077-12.687 46.347 0 20.661 4.673 36.558 14.018 47.691 9.345 11.121 22.567 16.681 39.678 16.681 18.69 0 35.84-3.864 51.463-11.577l18.534 45.981c-8.993 3.955-19.552 7.218-31.664 9.789-12.112 2.572-24.981 3.864-38.634 3.864-35.997 0-63.98-9.75-83.949-29.223-19.97-19.474-29.955-46.726-29.955-81.718 0-35.893 9.111-63.537 27.357-82.919 18.247-19.369 44.077-29.067 77.502-29.067 30.451 0 58.382 4.36 83.794 13.052v116.88z" clip-path="url(#clipPath385)" style="fill:#ffffff"/>
<path transform="matrix(.35278 0 0 -.35278 123.64 64.655)" d="m0 0c-4.27 5e-3 -7.628-1.505-10.077-4.527-2.448-3.024-3.676-7.199-3.681-12.525-6e-3 -5.575 1.164-9.794 3.514-12.656 2.348-2.863 5.751-4.297 10.207-4.302 1.929-2e-3 3.793 0.187 5.598 0.569 1.802 0.382 3.679 0.872 5.627 1.47l-6e-3 -6.373c-3.568-1.343-7.608-2.012-12.126-2.007-6.654 7e-3 -11.76 2.028-15.321 6.063-3.56 4.035-5.337 9.804-5.328 17.306 5e-3 4.726 0.874 8.86 2.609 12.402 1.734 3.542 4.241 6.255 7.516 8.137 3.277 1.882 7.124 2.821 11.538 2.816 4.642-5e-3 8.931-0.984 12.867-2.936l-2.68-6.183c-1.532 0.726-3.154 1.365-4.863 1.917-1.709 0.55-3.508 0.827-5.394 0.829" clip-path="url(#clipPath387)" style="fill:#ffffff"/>
<path transform="matrix(.35278 0 0 -.35278 141.9 78.691)" d="m0 0-25.71 0.028 0.05 45.451 25.71-0.028-7e-3 -6.28-18.279 0.02-0.014-12.373 17.13-0.019-7e-3 -6.217-17.129 0.018-0.015-14.269 18.279-0.02z" clip-path="url(#clipPath389)" style="fill:#ffffff"/>
<path transform="matrix(.35278 0 0 -.35278 160.52 78.711)" d="m0 0-9.108 0.01-22.313 36.241-0.249 1e-3 0.154-2.021c0.284-3.855 0.426-7.379 0.423-10.57l-0.026-23.627-6.747 7e-3 0.05 45.451 9.016-0.01 22.251-36.055 0.186-1e-3c-0.041 0.477-0.122 2.213-0.242 5.208-0.122 2.994-0.181 5.331-0.178 7.011l0.025 23.813 6.808-7e-3z" clip-path="url(#clipPath391)" style="fill:#ffffff"/>
<path transform="matrix(.35278 0 0 -.35278 172.09 78.724)" d="m0 0-7.431 8e-3 0.043 39.078-13.368 0.015 7e-3 6.373 34.167-0.037-7e-3 -6.373-13.368 0.014z" clip-path="url(#clipPath393)" style="fill:#ffffff"/>
<path transform="matrix(.35278 0 0 -.35278 183.69 70.161)" d="m0 0 5.161-6e-3c3.46-4e-3 5.97 0.636 7.525 1.92 1.556 1.283 2.334 3.189 2.338 5.718 2e-3 2.569-0.835 4.415-2.513 5.536-1.677 1.121-4.204 1.683-7.583 1.687l-4.911 5e-3zm-6e-3 -6.156-0.021-18.155-7.431 8e-3 0.05 45.451 12.84-0.014c5.865-6e-3 10.206-1.109 13.022-3.309 2.815-2.2 4.222-5.519 4.217-9.954-6e-3 -5.658-2.953-9.685-8.84-12.083l12.816-20.128-8.456 9e-3 -10.861 18.168z" clip-path="url(#clipPath395)" style="fill:#ffffff"/>
<path transform="matrix(.35278 0 0 -.35278 199.22 70.715)" d="m0 0c-6e-3 -5.596 1.119-9.841 3.375-12.735 2.255-2.893 5.601-4.342 10.036-4.347 4.416-5e-3 7.747 1.422 10.001 4.279 2.251 2.857 3.38 7.115 3.386 12.774 7e-3 5.574-1.103 9.804-3.328 12.687s-5.545 4.327-9.959 4.332c-4.456 6e-3 -7.82-1.432-10.093-4.31-2.272-2.878-3.412-7.106-3.418-12.68m34.695-0.038c-9e-3 -7.399-1.864-13.148-5.568-17.248s-8.945-6.146-15.722-6.139c-6.86 8e-3 -12.127 2.051-15.801 6.127-3.676 4.076-5.509 9.865-5.5 17.368 8e-3 7.502 1.863 13.262 5.569 17.279 3.702 4.017 8.986 6.022 15.845 6.014 6.757-7e-3 11.977-2.055 15.663-6.141 3.683-4.087 5.521-9.841 5.514-17.26" clip-path="url(#clipPath397)" style="fill:#ffffff"/>
<path transform="matrix(.35278 0 0 -.35278 128.86 106.4)" d="m0 0h-34.116v57.463h34.116v-12.459h-18.59v-9.041h17.215v-12.458h-17.215v-10.85h18.59z" clip-path="url(#clipPath399)" style="fill:#c89129"/>
<path transform="matrix(.35278 0 0 -.35278 145.9 100.25)" d="m0 0c0-3.564-0.904-6.727-2.712-9.492s-4.416-4.912-7.821-6.446c-3.407-1.532-7.403-2.299-11.988-2.299-3.826 0-7.036 0.269-9.629 0.806-2.596 0.537-5.294 1.474-8.098 2.81v13.836c2.961-1.521 6.04-2.706 9.237-3.558 3.197-0.851 6.131-1.277 8.804-1.277 2.305 0 3.996 0.399 5.07 1.198 1.075 0.8 1.612 1.828 1.612 3.086 0 0.787-0.216 1.474-0.648 2.064s-1.127 1.185-2.084 1.788c-0.956 0.602-3.504 1.834-7.644 3.694-3.747 1.704-6.558 3.355-8.432 4.953-1.873 1.598-3.261 3.432-4.165 5.503-0.905 2.069-1.356 4.52-1.356 7.349 0 5.293 1.926 9.42 5.778 12.382 3.851 2.96 9.144 4.441 15.879 4.441 5.947 0 12.013-1.376 18.197-4.127l-4.755-11.988c-5.373 2.463-10.01 3.695-13.914 3.695-2.019 0-3.486-0.354-4.403-1.061-0.917-0.708-1.375-1.586-1.375-2.634 0-1.127 0.583-2.136 1.749-3.026 1.165-0.892 4.33-2.516 9.492-4.874 4.952-2.228 8.392-4.618 10.318-7.173s2.888-5.773 2.888-9.65" clip-path="url(#clipPath401)" style="fill:#c89129"/>
<path transform="matrix(.35278 0 0 -.35278 158.2 106.4)" d="m0 0h-15.526v44.768h-14.031v12.695h43.55v-12.695h-13.993z" clip-path="url(#clipPath403)" style="fill:#c89129"/>
<path transform="matrix(.35278 0 0 -.35278 183.5 86.133)" d="m0 0v-34.588c0-7.52-2.129-13.344-6.387-17.471s-10.396-6.191-18.414-6.191c-7.835 0-13.855 2.005-18.06 6.014-4.206 4.01-6.308 9.773-6.308 17.293v34.943h15.604v-33.724c0-4.061 0.759-7.009 2.279-8.843 1.519-1.834 3.76-2.751 6.721-2.751 3.17 0 5.469 0.91 6.898 2.732 1.427 1.82 2.142 4.801 2.142 8.941v33.645z" clip-path="url(#clipPath405)" style="fill:#c89129"/>
<path transform="matrix(.35278 0 0 -.35278 199.5 96.033)" d="m0 0c0 5.267-1.043 9.171-3.125 11.712-2.083 2.542-5.248 3.813-9.492 3.813h-4.52v-32.19h3.458c4.717 0 8.175 1.369 10.377 4.108 2.201 2.736 3.302 6.922 3.302 12.557m16.115 0.55c0-9.591-2.641-16.98-7.921-22.167-5.28-5.189-12.702-7.783-22.266-7.783h-18.591v57.463h19.889c9.223 0 16.343-2.358 21.361-7.075 5.018-4.716 7.528-11.529 7.528-20.438" clip-path="url(#clipPath407)" style="fill:#c89129"/>
<path transform="matrix(.35278 0 0 -.35278 214.07 96.241)" d="m0 0c0-11.11 3.865-16.665 11.595-16.665 3.931 0 6.845 1.349 8.745 4.048 1.899 2.699 2.85 6.904 2.85 12.617 0 5.738-0.964 9.976-2.889 12.715-1.926 2.738-4.802 4.107-8.627 4.107-7.783 0-11.674-5.607-11.674-16.822m39.541 0c0-9.67-2.372-17.019-7.115-22.05s-11.687-7.547-20.831-7.547c-9.014 0-15.925 2.529-20.733 7.587-4.809 5.056-7.213 12.419-7.213 22.088 0 9.564 2.392 16.868 7.174 21.913 4.781 5.043 11.731 7.566 20.851 7.566 9.144 0 16.075-2.503 20.791-7.508 4.718-5.004 7.076-12.354 7.076-22.049" clip-path="url(#clipPath409)" style="fill:#c89129"/>
<path transform="matrix(.35278 0 0 -.35278 245.16 100.25)" d="m0 0c0-3.564-0.904-6.727-2.712-9.492s-4.416-4.912-7.821-6.446c-3.407-1.532-7.403-2.299-11.988-2.299-3.826 0-7.036 0.269-9.63 0.806-2.595 0.537-5.293 1.474-8.097 2.81v13.836c2.961-1.521 6.04-2.706 9.237-3.558 3.197-0.851 6.131-1.277 8.804-1.277 2.305 0 3.996 0.399 5.07 1.198 1.075 0.8 1.612 1.828 1.612 3.086 0 0.787-0.216 1.474-0.648 2.064s-1.127 1.185-2.084 1.788c-0.956 0.602-3.504 1.834-7.644 3.694-3.747 1.704-6.558 3.355-8.432 4.953-1.873 1.598-3.261 3.432-4.165 5.503-0.905 2.069-1.356 4.52-1.356 7.349 0 5.293 1.926 9.42 5.778 12.382 3.851 2.96 9.144 4.441 15.879 4.441 5.947 0 12.013-1.376 18.197-4.127l-4.756-11.988c-5.372 2.463-10.009 3.695-13.913 3.695-2.019 0-3.486-0.354-4.403-1.061-0.917-0.708-1.375-1.586-1.375-2.634 0-1.127 0.583-2.136 1.749-3.026 1.165-0.892 4.33-2.516 9.492-4.874 4.952-2.228 8.392-4.618 10.318-7.173s2.888-5.773 2.888-9.65" clip-path="url(#clipPath411)" style="fill:#c89129"/>
<path transform="matrix(.35278 0 0 -.35278 124.97 120.92)" d="m0 0h24.801v-30.971c-6.734-2.306-14.136-3.46-22.206-3.46-8.857 0-15.703 2.569-20.538 7.704-4.834 5.135-7.251 12.459-7.251 21.971 0 9.276 2.646 16.495 7.94 21.657 5.292 5.162 12.708 7.743 22.247 7.743 3.616 0 7.028-0.341 10.238-1.022 3.21-0.682 6.006-1.546 8.391-2.594l-4.912-12.185c-4.141 2.045-8.687 3.067-13.64 3.067-4.533 0-8.037-1.475-10.514-4.422-2.475-2.948-3.714-7.16-3.714-12.636 0-5.373 1.12-9.467 3.361-12.283 2.241-2.817 5.469-4.226 9.688-4.226 2.306 0 4.428 0.223 6.368 0.668v9.001h-10.259z" clip-path="url(#clipPath413)" style="fill:#c89129"/>
<path transform="matrix(.35278 0 0 -.35278 138.73 132.79)" d="m0 0v57.463h15.526v-44.925h22.128v-12.538z" clip-path="url(#clipPath415)" style="fill:#c89129"/>
<path transform="matrix(.35278 0 0 -.35278 161.16 122.63)" d="m0 0c0-11.109 3.865-16.664 11.595-16.664 3.931 0 6.845 1.348 8.745 4.048 1.899 2.698 2.85 6.903 2.85 12.616 0 5.738-0.963 9.978-2.889 12.715-1.926 2.738-4.802 4.107-8.627 4.107-7.783 0-11.674-5.607-11.674-16.822m39.541 0c0-9.669-2.372-17.018-7.115-22.049s-11.687-7.547-20.831-7.547c-9.014 0-15.925 2.529-20.733 7.586-4.809 5.057-7.213 12.42-7.213 22.089 0 9.563 2.392 16.868 7.174 21.912 4.781 5.044 11.731 7.567 20.851 7.567 9.144 0 16.075-2.503 20.791-7.507 4.718-5.006 7.076-12.356 7.076-22.051" clip-path="url(#clipPath417)" style="fill:#c89129"/>
<path transform="matrix(.35278 0 0 -.35278 185.12 124.3)" d="m0 0v-12.067h5.463c4.847 0 7.271 2.045 7.271 6.132 0 1.912-0.648 3.381-1.946 4.402-1.296 1.022-3.177 1.533-5.64 1.533zm0 11.359h4.676c2.227 0 3.95 0.458 5.169 1.376 1.218 0.917 1.828 2.28 1.828 4.087 0 3.224-2.437 4.835-7.31 4.835h-4.363zm-15.526 22.05h20.046c7.808 0 13.605-1.159 17.392-3.479 3.786-2.318 5.679-5.928 5.679-10.828 0-3.223-0.826-5.974-2.476-8.254-1.651-2.28-3.825-3.747-6.525-4.402v-0.393c3.564-0.943 6.145-2.516 7.743-4.716 1.599-2.201 2.398-5.058 2.398-8.569 0-5.214-1.959-9.321-5.876-12.322-3.917-3-9.256-4.5-16.017-4.5h-22.364z" clip-path="url(#clipPath419)" style="fill:#c89129"/>
<path transform="matrix(.35278 0 0 -.35278 209.96 124.5)" d="m0 0-2.477 9.433c-0.576 2.097-1.277 4.808-2.103 8.136-0.824 3.328-1.369 5.713-1.63 7.154-0.236-1.337-0.702-3.538-1.396-6.603-0.694-3.066-2.234-9.106-4.617-18.12zm6.053-23.504-2.831 10.769h-18.669l-2.909-10.769h-17.057l18.748 57.699h20.713l18.984-57.699z" clip-path="url(#clipPath421)" style="fill:#c89129"/>
<path transform="matrix(.35278 0 0 -.35278 -53.974 224.47)" d="m779.91 317.36h15.604v-57.463h-15.604z" clip-path="url(#clipPath423)" style="fill:#c89129"/>
<path transform="matrix(.35278 0 0 -.35278 245.18 126.63)" d="m0 0c0-3.564-0.904-6.727-2.712-9.492s-4.416-4.912-7.821-6.446c-3.407-1.532-7.403-2.299-11.988-2.299-3.826 0-7.036 0.269-9.63 0.806-2.595 0.537-5.293 1.474-8.097 2.81v13.836c2.961-1.521 6.04-2.706 9.237-3.558 3.197-0.851 6.131-1.277 8.804-1.277 2.305 0 3.996 0.399 5.07 1.198 1.075 0.8 1.612 1.828 1.612 3.086 0 0.787-0.216 1.474-0.648 2.064s-1.127 1.185-2.084 1.788c-0.956 0.603-3.504 1.834-7.644 3.695-3.747 1.703-6.558 3.354-8.432 4.952-1.873 1.598-3.261 3.432-4.165 5.502-0.905 2.07-1.356 4.52-1.356 7.351 0 5.292 1.926 9.419 5.778 12.38 3.851 2.961 9.144 4.442 15.879 4.442 5.947 0 12.013-1.375 18.197-4.127l-4.756-11.988c-5.372 2.463-10.009 3.694-13.913 3.694-2.019 0-3.486-0.353-4.403-1.06-0.917-0.708-1.375-1.586-1.375-2.634 0-1.126 0.583-2.136 1.749-3.027 1.165-0.891 4.33-2.515 9.492-4.873 4.952-2.228 8.392-4.619 10.318-7.173s2.888-5.771 2.888-9.65" clip-path="url(#clipPath425)" style="fill:#c89129"/>
<path transform="matrix(.35278 0 0 -.35278 228.74 70.728)" d="m0 0c0 5.928-1.487 10.394-4.461 13.399-2.975 3.005-7.394 4.508-13.26 4.508h-7.678v-36.311h6.436c6.3 0 11.035 1.549 14.206 4.648 3.171 3.098 4.757 7.683 4.757 13.756m5.596 0.187c0-7.503-2.036-13.239-6.11-17.207-4.072-3.969-9.931-5.954-17.579-5.954h-12.592v45.451h13.928c7.067 0 12.56-1.959 16.477-5.876 3.918-3.917 5.876-9.389 5.876-16.414" clip-path="url(#clipPath427)" style="fill:#ffffff"/>
<path transform="matrix(.35278 0 0 -.35278 245.02 78.832)" d="m0 0h-25.338v45.451h25.338v-4.694h-20.052v-14.643h18.839v-4.663h-18.839v-16.725h20.052z" clip-path="url(#clipPath429)" style="fill:#ffffff"/>
<path transform="matrix(.35278 0 0 -.35278 71.253 92.233)" d="m0 0c-2.597-1.984-4.685-4.62-6.213-7.844 1.475 0.835 3.081 1.644 4.764 2.401 0.339 2.232 0.901 4.099 1.697 5.574-0.091-0.04-0.17-0.092-0.248-0.131m23.428-0.496-0.678 0.444c-2.193-0.17-4.647-0.561-7.323-1.136 0.353-0.365 0.679-0.731 0.979-1.083 3.25-3.72 6.304-8.758 8.836-14.553 3.903 0.835 7.414 1.331 10.442 1.475-2.898 6.291-7.126 11.42-12.256 14.853m-8.014-2.623c-0.522 0.587-1.018 1.122-1.488 1.592l-0.339-0.078c-2.336-0.601-4.398-1.201-6.291-1.841l5.808-16.719c3.315 1.096 6.487 2.01 9.45 2.715l0.313 0.078c0.365 0.091 0.718 0.17 1.07 0.261-2.454 5.573-5.403 10.415-8.523 13.992m14.827-29.537c1.671-8.444 1.501-15.753-0.456-20.335 1.292 0.718 2.571 1.58 3.811 2.558 3.746 4.543 5.834 10.925 5.873 18.012-2.428 0.352-5.599 0.274-9.228-0.235m13.653 14.905c-1.201 0.77-3.329 1.136-6.252 1.149 0.248-0.6 0.496-1.253 0.796-2.075 1.462-4.151 2.232-8.406 2.323-12.661 1.671-0.365 2.924-0.965 3.707-1.788 0.483 2.141 0.718 4.347 0.718 6.578 0 3.002-0.431 5.965-1.292 8.797m-3.12-14.918c-0.065-5.168-1.174-9.958-3.224-14.018 3.042 3.42 5.273 7.492 6.5 11.904-0.352 0.939-1.475 1.67-3.276 2.114m-10.846 32.473c-1.449 0.261-3.119 0.353-5.051 0.287 5.168-3.68 9.371-8.979 12.216-15.388 0.183 0 0.353 0.013 0.536 0.013 2.375 0 4.281-0.261 5.69-0.77-2.453 6.683-7.178 12.295-13.391 15.858m7.27-18.912c-0.326 0.927-0.627 1.736-0.94 2.48-3.002-0.118-6.617-0.601-10.494-1.423 0.601-1.422 1.175-2.91 1.71-4.45 1.045-3.029 1.893-6.017 2.506-8.889 3.629 0.535 6.892 0.627 9.463 0.287-0.104 3.981-0.848 8.014-2.245 11.995m-8.249-13.744c-0.078-0.013-0.143-0.026-0.235-0.039l-0.287-0.078c-0.313-0.039-0.653-0.091-0.979-0.157-2.858-0.535-5.886-1.318-9.006-2.336l6.84-19.63c0.939 0.352 1.775 0.705 2.545 1.07 2.597 3.955 3.015 11.838 1.122 21.17m-16.628 11.029c-1.619-0.548-3.302-1.161-5.025-1.827-1.801-0.718-3.641-1.501-5.482-2.362 0.444-1.632 0.953-3.276 1.527-4.895 0.914-2.676 2.023-5.351 3.289-7.988 1.58 0.823 3.29 1.606 5.078 2.35 1.657 0.691 3.354 1.344 5.064 1.918zm4.882-14.044c-1.632-0.548-3.303-1.187-4.986-1.879-1.723-0.718-3.407-1.501-5.012-2.323 2.088-4.138 4.476-7.818 6.943-10.651 2.48-2.858 4.973-4.777 7.205-5.521 0.94 0.209 1.827 0.457 2.688 0.744zm-15.115 4.529c-0.522 1.488-1.005 3.041-1.475 4.738l-8.379-4.711c0.274-1.058 0.587-2.102 0.953-3.133 1.253-3.615 2.963-6.97 5.077-9.959 1.801 1.619 4.229 3.276 7.205 4.895-1.24 2.545-2.376 5.299-3.381 8.17m4.138-22.801c-3.054 2.049-5.795 4.659-8.158 7.779-1.474-1.567-2.192-2.963-2.062-4.073 1.397-1.096 2.884-2.088 4.451-2.923l0.091-0.039c3.263-1.749 6.748-2.859 10.415-3.302-1.605 0.665-3.184 1.527-4.737 2.558m6.93 2.571c-2.545 2.924-4.946 6.591-7.113 10.885-2.885-1.566-5.299-3.211-7.022-4.777 2.31-3.067 4.986-5.625 7.936-7.596 3.028-2.023 6.147-3.328 9.279-3.863 0.94 0.052 1.893 0.143 2.846 0.274-1.906 1.044-3.902 2.754-5.926 5.077m-21.209 16.693c-0.352 1.058-0.639 1.958-0.862 2.793-2.558-1.853-4.215-3.563-4.816-4.972 1.749-4.738 4.673-9.006 8.51-12.36 0.248 1.253 1.097 2.623 2.519 4.098-2.232 3.119-4.02 6.63-5.351 10.441m34.274 11.943c-0.561 1.605-1.148 3.158-1.762 4.594-0.522-0.117-1.057-0.235-1.592-0.365-3.054-0.744-6.187-1.645-9.319-2.702l4.451-12.817c3.158 1.031 6.252 1.827 9.188 2.375 0.353 0.066 0.692 0.131 1.044 0.183l0.026 0.013 0.431 0.065c-0.626 2.833-1.449 5.743-2.467 8.654m-14.774 26.573c-0.653-0.065-1.332-0.156-2.089-0.3 1.605-0.665 3.263-1.827 4.973-3.445 2.232 0.522 4.412 0.913 6.474 1.174-3.093 1.606-6.239 2.48-9.358 2.571m6.63 0.014c1.671-0.588 3.328-1.371 4.973-2.363 1.305 0.105 2.532 0.144 3.667 0.118-2.754 1.187-5.651 1.931-8.64 2.245m-11.355-0.901c-0.418-0.117-0.927-0.274-1.436-0.444l1.566-4.503c1.971 0.653 3.955 1.227 5.939 1.723-2.154 1.919-4.242 3.028-6.069 3.224m-2.663-0.875c-0.496-0.182-0.966-0.365-1.396-0.561-1.292-1.266-2.245-3.38-2.754-6.16 1.187 0.522 2.467 1.031 3.811 1.527 0.652 0.248 1.279 0.483 1.905 0.705zm1.997-5.742c-0.626-0.209-1.253-0.431-1.866-0.666-1.514-0.548-3.028-1.175-4.516-1.84-0.614-4.999 0.026-11.512 1.788-18.377 1.71 0.796 3.511 1.566 5.364 2.297 1.749 0.691 3.446 1.318 5.051 1.866zm-14.918-7.127c-1.71-1.148-3.146-2.297-4.19-3.38-1.684-3.837-2.545-7.936-2.545-12.178 0-3.014 0.444-5.99 1.318-8.862 0.979 1.436 2.663 3.002 5.025 4.673-1.657 6.865-1.527 13.678 0.392 19.747m7.217 4.02c-1.957-0.926-3.784-1.905-5.429-2.897-0.183-0.47-0.352-0.94-0.509-1.436-1.84-5.717-2.01-12.164-0.509-18.69l8.353 4.672c-1.749 6.722-2.414 13.196-1.906 18.351m3.733-24.368c-0.522 1.488-1.005 3.041-1.475 4.738l-8.379-4.711c0.274-1.058 0.587-2.102 0.953-3.133 1.253-3.615 2.963-6.97 5.077-9.959 1.801 1.619 4.229 3.276 7.205 4.895-1.24 2.545-2.376 5.299-3.381 8.17m-13.521 20.126c0.978 0.757 2.088 1.501 3.302 2.245 0.731 1.841 1.631 3.55 2.688 5.078-2.362-2.102-4.398-4.608-5.99-7.323" clip-path="url(#clipPath431)" style="fill:#c89129"/>
</g>
</svg>
